<?xml version="1.0" encoding="iso-8859-1"?>
<!-- Uploaded to: SVG Repo, www.svgrepo.com, Generator: SVG Repo Mixer Tools -->
<svg fill="#000000" height="800px" width="800px" version="1.1" id="Layer_1" xmlns="http://www.w3.org/2000/svg" xmlns:xlink="http://www.w3.org/1999/xlink" 
	 viewBox="0 0 512.001 512.001" xml:space="preserve">
<g>
	<g>
		<g>
			<path d="M193.963,461.495L88.722,439.72c-4.709-0.97-9.315,2.052-10.289,6.762c-0.974,4.708,2.053,9.314,6.762,10.289
				l105.241,21.775c0.595,0.122,1.187,0.182,1.773,0.182c4.041,0,7.666-2.83,8.517-6.944
				C201.699,467.077,198.673,462.47,193.963,461.495z"/>
			<path d="M213.248,428.936L85.746,402.554c-4.709-0.969-9.315,2.052-10.289,6.762c-0.974,4.708,2.053,9.314,6.762,10.289
				l127.501,26.383c0.596,0.122,1.188,0.182,1.773,0.182c4.042,0,7.666-2.83,8.517-6.944
				C220.983,434.517,217.956,429.91,213.248,428.936z"/>
			<path d="M474.042,24.162c-3.161-9.077-9.666-16.38-18.317-20.563C450.791,1.211,445.526,0,440.077,0
				c-13.722,0-26.445,7.98-32.414,20.329l-61.481,127.154c-4.042,8.359-4.695,17.754-1.886,26.568L234.985,400.125
				c-33.676-17.119-91.07-33.435-115.415-38.472c-21.489-4.447-50.717-3.871-67.949,24.111
				c-16.884,27.419-16.607,52.041-14.93,68.173c2.425,23.352,22.12,40.533,54.033,47.136c21.539,4.456,69.202,10.928,106.021,10.928
				c9.651,0,18.56-0.446,26.055-1.487c24.437-2.623,44.187-20.54,49.171-44.633c1.55-7.489,1.576-15.019,0.087-22.431
				l119.278-246.696c8.449-3.234,15.595-9.581,19.637-17.944l61.481-127.154C476.637,43.004,477.201,33.239,474.042,24.162z
				 M255.049,438.626c-0.902,1.865-1.11,3.992-0.584,5.997c1.528,5.832,1.681,11.797,0.454,17.729
				c-3.452,16.688-17.151,29.089-34.087,30.86c-0.102,0.01-0.204,0.023-0.305,0.037c-32.4,4.547-98.417-3.464-126.277-9.228
				c-14.096-2.916-38.066-10.936-40.241-31.883c-1.533-14.757-1.506-34.6,12.439-57.245c9.722-15.787,25.944-21.083,49.595-16.188
				c52.745,10.914,103.912,32.388,118.372,40.937c2.099,1.237,4.615,1.544,6.947,0.839c2.331-0.703,4.26-2.352,5.32-4.544
				l108.852-225.131c2.231,1.852,4.701,3.445,7.377,4.74c2.678,1.294,5.455,2.231,8.302,2.828L255.049,438.626z M395.297,171.232
				c-3.082,6.375-9.652,10.495-16.74,10.495c-2.801,0-5.515-0.626-8.065-1.86c-4.467-2.159-7.824-5.928-9.456-10.614
				c-1.631-4.685-1.34-9.725,0.82-14.192l26.138-54.056l33.808,15.41L395.297,171.232z M429.382,100.736l-33.808-15.41l6.959-14.393
				l33.807,15.409L429.382,100.736z M456.777,44.078l-12.856,26.588l-33.808-15.41l13.225-27.349
				c3.081-6.375,9.651-10.495,16.737-10.495c2.801,0,5.515,0.626,8.066,1.861c4.467,2.159,7.824,5.928,9.456,10.613
				C459.229,34.571,458.937,39.611,456.777,44.078z"/>
		</g>
	</g>
</g>
</svg>