<?xml version="1.0" encoding="iso-8859-1"?>
<!-- Uploaded to: SVG Repo, www.svgrepo.com, Generator: SVG Repo Mixer Tools -->
<svg fill="#000000" height="800px" width="800px" version="1.1" id="Layer_1" xmlns="http://www.w3.org/2000/svg" xmlns:xlink="http://www.w3.org/1999/xlink" 
	 viewBox="0 0 230.632 230.632" xml:space="preserve">
<g>
	<g>
		<g>
			<path d="M157.881,122.46c-0.32-0.284-0.636-0.572-0.948-0.86c-0.296-0.276-0.592-0.42-0.892-0.504
				c1.388-1.36,2.468-3.056,3.132-5.16c0.308-0.972,0.06-1.544-0.208-1.848c-0.248-0.296-0.756-0.624-1.68-0.468
				c-1.228,0.196-2.424,0.564-3.588,0.916c-0.412,0.124-0.824,0.248-1.24,0.368c-0.392,0.112-0.664,0.28-0.868,0.472
				c-0.472-1.78-1.324-3.48-2.656-5.048c-0.784-0.92-1.484-1.012-1.94-0.94c-0.44,0.084-1.048,0.404-1.436,1.48
				c-0.384,1.048-0.596,2.148-0.804,3.216c-0.1,0.516-0.204,1.032-0.32,1.544c-0.068,0.296-0.068,0.54-0.028,0.756
				c-1.816-0.5-3.756-0.588-5.824-0.152c-1.132,0.236-1.54,0.76-1.68,1.168c-0.14,0.396-0.16,1.044,0.548,1.9
				c0.768,0.924,1.684,1.736,2.568,2.516c0.332,0.292,0.664,0.584,0.984,0.884c0.236,0.22,0.48,0.344,0.724,0.424
				c-1.356,1.34-2.42,2.98-3.096,4.984c-0.272,0.812-0.2,1.52,0.204,1.996c0.232,0.268,0.648,0.56,1.38,0.56
				c0.164,0,0.34-0.012,0.54-0.048c1.06-0.176,2.092-0.492,3.092-0.796c0.38-0.116,0.756-0.236,1.136-0.34
				c0.6-0.172,0.944-0.452,1.196-0.76c0.472,1.912,1.376,3.704,2.824,5.32c0.588,0.652,1.128,0.824,1.536,0.824
				c0.096,0,0.184-0.012,0.264-0.024c0.404-0.08,0.952-0.364,1.308-1.3c0.46-1.228,0.744-2.52,1.012-3.772l0.236-1.084
				c0.072-0.308,0.056-0.58,0-0.832c1.032,0.28,2.092,0.416,3.188,0.416c0.812,0,1.64-0.08,2.48-0.232
				c1.204-0.22,1.644-0.784,1.804-1.22c0.152-0.412,0.184-1.084-0.52-1.944C159.581,123.98,158.717,123.208,157.881,122.46z
				 M152.261,117.02c-0.128-0.764,0.048-0.892,0.512-1.024c0.42-0.12,0.84-0.248,1.256-0.38c1.124-0.344,2.288-0.7,3.436-0.884
				c0.312-0.056,0.552-0.016,0.64,0.088c0.084,0.092,0.12,0.344-0.012,0.764c-1.044,3.284-3.048,5.584-5.964,6.84
				c-0.584,0.248-1.18,0.236-1.784-0.088C152.205,121.064,152.689,119.62,152.261,117.02z M145.533,115.884
				c0.124-0.524,0.228-1.056,0.332-1.584c0.208-1.068,0.404-2.08,0.752-3.044c0.16-0.432,0.376-0.716,0.576-0.752
				c0.016-0.004,0.036-0.004,0.056-0.004c0.216,0,0.52,0.204,0.82,0.564c2.016,2.372,2.96,5.016,2.812,7.864
				c-0.048,0.916-0.376,1.564-1.024,1.988c-0.112-2.588-2.088-3.7-3.872-4.38C145.433,116.324,145.457,116.212,145.533,115.884z
				 M140.765,120.964c-0.852-0.752-1.732-1.532-2.444-2.396c-0.328-0.396-0.4-0.672-0.356-0.796c0.048-0.132,0.296-0.316,0.84-0.432
				c0.884-0.184,1.744-0.276,2.576-0.276c2.228,0,4.252,0.66,6.048,1.972c0.64,0.468,0.928,0.956,0.92,1.612
				c-2.304-1.256-4.32,0.024-5.692,1.156c-0.488,0.408-0.616,0.32-0.888,0.06C141.437,121.564,141.101,121.264,140.765,120.964z
				 M145.461,126.904c0.172,1.032-0.092,1.28-0.796,1.476c-0.388,0.112-0.768,0.232-1.156,0.348c-0.964,0.296-1.96,0.6-2.948,0.764
				c-0.42,0.06-0.744,0.016-0.868-0.132c-0.132-0.152-0.128-0.488,0.012-0.9c1.008-3.004,2.864-5.2,5.516-6.532
				c0.436-0.224,0.832-0.332,1.2-0.332c0.336,0,0.652,0.092,0.964,0.284C145.693,122.944,145.065,124.596,145.461,126.904z
				 M152.257,128.424l-0.244,1.096c-0.26,1.212-0.532,2.464-0.964,3.612c-0.124,0.336-0.296,0.556-0.456,0.584
				c-0.184,0.028-0.416-0.08-0.748-0.44c-2.148-2.388-3.124-5.156-2.904-8.228c0.056-0.812,0.384-1.408,0.996-1.796
				c0.192,2.22,1.268,3.444,3.728,4.368C152.341,127.872,152.329,128.092,152.257,128.424z M159.765,126.424
				c-0.084,0.216-0.432,0.4-0.944,0.492c-2.836,0.516-5.492,0.08-7.892-1.308c-0.976-0.564-1.428-1.188-1.464-2.084
				c1.996,0.896,3.572,0.584,5.536-1.04c0.584-0.472,0.784-0.4,1.156-0.056c0.316,0.296,0.64,0.584,0.964,0.876
				c0.844,0.752,1.64,1.46,2.312,2.284C159.709,125.932,159.833,126.236,159.765,126.424z"/>
			<path d="M197.641,106.204c-0.728-0.892-1.592-1.664-2.432-2.416c-0.316-0.28-0.632-0.564-0.94-0.852
				c-0.296-0.276-0.592-0.42-0.896-0.504c1.388-1.36,2.464-3.056,3.132-5.164c0.308-0.972,0.06-1.544-0.208-1.848
				c-0.248-0.296-0.756-0.62-1.68-0.468c-1.228,0.196-2.424,0.564-3.588,0.916c-0.412,0.124-0.824,0.248-1.24,0.368
				c-0.388,0.112-0.664,0.28-0.868,0.476c-0.472-1.78-1.324-3.48-2.66-5.048c-0.788-0.92-1.504-1.032-1.94-0.936
				c-0.436,0.08-1.044,0.404-1.432,1.48c-0.38,1.044-0.596,2.144-0.804,3.212c-0.1,0.52-0.204,1.036-0.32,1.548
				c-0.068,0.296-0.068,0.54-0.032,0.756c-1.812-0.5-3.748-0.588-5.824-0.156c-1.132,0.236-1.54,0.76-1.68,1.168
				c-0.136,0.396-0.156,1.044,0.552,1.9c0.772,0.924,1.688,1.736,2.576,2.52c0.328,0.292,0.656,0.584,0.976,0.88
				c0.232,0.216,0.476,0.34,0.716,0.42c-1.356,1.34-2.416,2.976-3.092,4.984c-0.272,0.812-0.204,1.52,0.204,1.992
				c0.192,0.228,0.608,0.564,1.392,0.564c0.16,0,0.336-0.016,0.528-0.048c1.06-0.176,2.092-0.492,3.092-0.796
				c0.38-0.116,0.756-0.236,1.136-0.34c0.6-0.172,0.944-0.452,1.2-0.76c0.472,1.912,1.376,3.704,2.828,5.32
				c0.484,0.536,1.02,0.82,1.54,0.82c0.084,0,0.172-0.008,0.256-0.024c0.404-0.076,0.956-0.364,1.308-1.296
				c0.46-1.22,0.74-2.512,1.008-3.76c0.08-0.368,0.156-0.732,0.24-1.096c0.072-0.308,0.056-0.58,0-0.832
				c1.032,0.276,2.092,0.416,3.188,0.416c0.812,0,1.636-0.08,2.48-0.232c1.204-0.22,1.644-0.78,1.804-1.216
				C198.313,107.736,198.345,107.068,197.641,106.204z M189.593,98.356c-0.128-0.764,0.044-0.896,0.512-1.028
				c0.416-0.12,0.84-0.248,1.256-0.38c1.124-0.344,2.288-0.7,3.436-0.884c0.312-0.052,0.552-0.016,0.64,0.088
				c0.084,0.092,0.12,0.344-0.012,0.764c-1.044,3.284-3.052,5.588-5.964,6.844c-0.584,0.248-1.176,0.236-1.784-0.088
				C189.537,102.4,190.021,100.956,189.593,98.356z M182.865,97.22c0.124-0.524,0.228-1.056,0.332-1.584
				c0.212-1.072,0.408-2.084,0.752-3.048c0.16-0.428,0.372-0.712,0.576-0.748c0.016-0.004,0.036-0.008,0.056-0.008
				c0.216,0,0.52,0.208,0.82,0.564c2.016,2.372,2.96,5.016,2.812,7.864c-0.048,0.916-0.376,1.564-1.024,1.992
				c-0.116-2.588-2.088-3.7-3.872-4.388C182.765,97.656,182.789,97.544,182.865,97.22z M178.105,102.308
				c-0.852-0.756-1.74-1.54-2.452-2.408c-0.328-0.396-0.4-0.672-0.356-0.796c0.048-0.132,0.296-0.316,0.84-0.432
				c0.884-0.184,1.74-0.272,2.572-0.272c2.228,0,4.252,0.66,6.056,1.972c0.648,0.472,0.936,0.952,0.92,1.608
				c-2.304-1.248-4.324,0.028-5.696,1.16c-0.488,0.4-0.628,0.304-0.888,0.06C178.773,102.9,178.441,102.608,178.105,102.308z
				 M182.797,108.244c0.172,1.024-0.092,1.272-0.8,1.472c-0.388,0.112-0.768,0.232-1.156,0.348c-0.964,0.296-1.96,0.6-2.948,0.764
				c-0.4,0.068-0.74,0.016-0.868-0.132c-0.132-0.152-0.128-0.488,0.012-0.9c1.008-3.008,2.864-5.204,5.516-6.532
				c0.44-0.224,0.832-0.332,1.2-0.332c0.336,0,0.652,0.092,0.964,0.284C183.025,104.284,182.397,105.936,182.797,108.244z
				 M189.589,109.76c-0.084,0.368-0.164,0.74-0.248,1.108c-0.26,1.208-0.528,2.456-0.96,3.6c-0.124,0.336-0.296,0.552-0.456,0.584
				c-0.16,0.028-0.46-0.128-0.744-0.44c-2.148-2.392-3.128-5.16-2.908-8.232c0.06-0.808,0.388-1.404,0.996-1.792
				c0.192,2.216,1.268,3.44,3.728,4.368C189.677,109.208,189.665,109.416,189.589,109.76z M197.101,107.76
				c-0.084,0.212-0.432,0.396-0.944,0.488c-2.836,0.52-5.492,0.084-7.892-1.304c-0.976-0.564-1.428-1.188-1.464-2.088
				c1.996,0.908,3.572,0.588,5.54-1.036c0.584-0.488,0.788-0.4,1.156-0.056c0.308,0.292,0.632,0.58,0.956,0.872
				c0.808,0.72,1.64,1.46,2.312,2.284C197.045,107.264,197.169,107.568,197.101,107.76z"/>
			<path d="M226.597,217.456c-2.084-8.484-7.712-10.732-11.824-12.368c-0.62-0.248-1.224-0.488-1.776-0.744
				c-0.872-0.396-1.636-0.888-2.408-1.38c-0.252-0.16-0.536-0.296-0.792-0.456c1.468-12.608,2.272-25.692,2.272-39.084
				c0-65.444-23.916-142.916-44.116-142.916s-44.12,77.476-44.12,142.92c0,12.048,0.664,23.86,1.86,35.312
				c-0.388-0.02-0.78-0.048-1.168-0.056c-3.216-0.016-5.808,1.156-8.212,2.212c-1.924,0.848-3.752,1.648-5.436,1.684
				c-0.756,0.02-1.464,0.016-2.136-0.004c3.492-18.212,5.36-38.612,5.36-59.66C114.101,77.468,90.185,0,69.985,0
				s-44.12,77.468-44.12,142.916c0,22.172,2.076,43.636,5.952,62.576c-10.816,3.1-21.044,9.244-27.06,13.864
				c-0.872,0.668-1.036,1.916-0.368,2.78c0.392,0.512,0.98,0.776,1.576,0.776c0.42,0,0.848-0.132,1.208-0.412
				c9.256-7.104,28.916-18.124,44.004-14.236c3.656,0.936,10.232-1.104,19.092-4.1c3.58-1.212,6.956-2.352,8.676-2.6
				c9.344-1.364,13.244,0.268,17.368,2c3.504,1.472,7.484,3.148,14.656,2.98c2.472-0.056,4.748-1.056,6.944-2.02
				c2.196-0.964,4.268-1.876,6.452-1.876c0.036,0,0.072,0,0.108,0c0.88,0.012,1.756,0.072,2.636,0.124
				c1.636,0.104,3.324,0.22,5.04,0.056c6.604-0.62,10.872-4.752,14.636-8.4c3.904-3.78,7.276-7.052,12.764-7.068
				c0.012,0,0.024,0,0.032,0c4.416,0,8.564,2.324,12.332,6.912l0.928,1.144c2.84,3.516,6.06,7.5,11.744,9.224
				c5.496,1.664,8.984,0.708,12.048-0.14c2.976-0.828,5.34-1.488,9.516,0.476c0.832,0.388,1.568,0.864,2.304,1.332
				c0.924,0.588,1.852,1.172,2.904,1.648c0.604,0.272,1.26,0.536,1.944,0.808c3.856,1.54,7.844,3.128,9.44,9.628
				c0.26,1.064,1.344,1.708,2.4,1.452C226.209,219.592,226.857,218.516,226.597,217.456z M64.213,158.784v43.212
				c-4.816,1.544-9.992,2.976-12.052,2.432c-5.216-1.344-10.884-1.1-16.504,0.092c-3.796-18.636-5.824-39.768-5.824-61.604
				c0-68.088,23.836-134.644,38.732-138.748l0.076,149.016C66.109,153.792,64.213,156.064,64.213,158.784z M72.917,199.108
				c-1.224,0.396-2.52,0.828-3.92,1.3c-0.616,0.208-1.276,0.432-1.948,0.656v-42.28c0-1.62,1.316-2.936,2.932-2.936
				c1.62,0,2.936,1.316,2.936,2.936V199.108z M97.845,199.912c-4.436-1.868-9.044-3.796-19.472-2.272
				c-0.712,0.104-1.628,0.336-2.616,0.608v-39.464c0-2.664-1.824-4.892-4.28-5.552L71.401,4.168
				c14.896,4.112,38.728,70.664,38.728,138.748c0,20.936-1.868,41.2-5.36,59.252C102.033,201.668,99.965,200.8,97.845,199.912z
				 M166.209,184.804c-2.124-0.916-4.332-1.4-6.62-1.4c-0.016-0.004-0.032-0.004-0.048-0.004c-1.544,0.004-2.936,0.236-4.244,0.588
				l-0.892-1.204c-0.188-0.256-0.532-0.312-0.792-0.132c-0.252,0.18-0.316,0.532-0.136,0.788l0.668,0.904
				c-1.476,0.52-2.816,1.228-4.064,2.064l-2.564-3.512c-0.188-0.256-0.536-0.308-0.792-0.136c-0.252,0.184-0.316,0.536-0.136,0.792
				l2.556,3.504c-1.34,0.996-2.588,2.108-3.796,3.256l-5.784-8.184c-0.188-0.256-0.536-0.316-0.792-0.136
				c-0.252,0.184-0.316,0.536-0.136,0.792l5.884,8.328c-0.164,0.16-0.332,0.316-0.496,0.476c-1.152,1.116-2.284,2.196-3.46,3.188
				l-7.668-10.852c-0.188-0.256-0.536-0.316-0.792-0.136c-0.252,0.184-0.316,0.536-0.136,0.792l7.716,10.916
				c-2.272,1.768-4.756,3.096-7.896,3.388c-0.684,0.068-1.38,0.076-2.092,0.056c-1.172-11.056-1.82-22.464-1.868-34.092h38.416
				L166.209,184.804z M166.245,162.008h-38.428c0.024-4.512,0.148-9.016,0.368-13.496h38.084L166.245,162.008z M166.273,145.68
				h-37.936c3.568-61.404,24.552-117.116,38.148-120.976L166.273,145.68z M169.321,24.676c13.596,3.632,34.668,59.46,38.24,121
				h-38.452L169.321,24.676z M206.317,197.772l-7.168-10c-0.18-0.248-0.532-0.308-0.792-0.128c-0.252,0.184-0.312,0.536-0.128,0.792
				l7.912,11.04c-0.04,0.388-0.076,0.78-0.12,1.168c-2.168-0.776-3.988-0.976-5.628-0.888l-8.504-11.864
				c-0.18-0.256-0.532-0.308-0.792-0.132c-0.252,0.184-0.312,0.536-0.128,0.788l8.12,11.332c-1.232,0.184-2.384,0.488-3.512,0.8
				c-0.68,0.188-1.356,0.372-2.048,0.524l-10.068-14.128c-0.172-0.24-0.512-0.296-0.76-0.124c-0.244,0.176-0.3,0.516-0.124,0.764
				l9.744,13.676c-1.828,0.276-3.856,0.28-6.584-0.544c-0.356-0.108-0.628-0.292-0.96-0.424l-8.352-11.488
				c-0.172-0.24-0.508-0.284-0.756-0.12c-0.24,0.172-0.296,0.504-0.124,0.744l7.272,10.004c-2.82-1.632-4.816-4.072-6.884-6.636
				l-0.956-1.172c-1.876-2.284-3.864-4.076-5.94-5.428l0.036-21.484h39C208.025,176.08,207.413,187.088,206.317,197.772z
				 M169.081,162.008l0.024-13.496h38.612c0.22,4.48,0.348,8.98,0.368,13.496H169.081z"/>
			<circle cx="40.241" cy="216.824" r="2.048"/>
			<circle cx="76.241" cy="224.824" r="2.048"/>
			<circle cx="82.301" cy="210.104" r="2.048"/>
			<circle cx="106.229" cy="224.824" r="2.048"/>
			<circle cx="125.241" cy="214.304" r="2.048"/>
			<circle cx="161.121" cy="228.584" r="2.048"/>
			<circle cx="166.281" cy="206.584" r="2.048"/>
			<circle cx="192.001" cy="216.344" r="2.048"/>
		</g>
	</g>
</g>
</svg>