<?xml version="1.0" encoding="iso-8859-1"?>
<!-- Uploaded to: SVG Repo, www.svgrepo.com, Generator: SVG Repo Mixer Tools -->
<svg height="800px" width="800px" version="1.1" id="Layer_1" xmlns="http://www.w3.org/2000/svg" xmlns:xlink="http://www.w3.org/1999/xlink" 
	 viewBox="0 0 392.567 392.567" xml:space="preserve">
<path style="fill:#194F82;" d="M332.024,264.421l-41.568-42.861c-7.176-7.434-17.261-11.636-27.539-11.636h-93.285v-72.598
	c0-21.075-17.131-38.271-38.271-38.271c-20.17,0-36.719,15.709-38.141,35.491C37.947,151.16,0,201.585,0,260.09
	c0,72.404,58.893,131.362,131.362,131.362c58.893,0,109.64-39.305,125.802-94.255l45.964,47.515
	c11.895,14.352,37.301,16.679,53.851,1.164l23.79-22.562c15.903-14.933,15.063-41.503,1.487-54.109
	C369.584,254.724,346.505,253.883,332.024,264.421z M131.362,286.465h47.968c-9.438,17.261-27.539,28.444-47.968,28.444
	c-30.19,0-54.756-24.566-54.756-54.756c0-14.933,6.206-28.832,16.549-38.853v26.958C93.026,269.334,110.287,286.465,131.362,286.465
	z M131.362,369.601c-60.444,0-109.511-49.131-109.511-109.511c0-46.416,28.768-86.756,71.24-102.465v36.267
	c-23.467,13.576-38.335,38.853-38.335,66.198c0,42.279,34.392,76.606,76.606,76.606c32.517,0,60.897-20.299,71.887-50.23h34.327
	C225.552,334.627,182.044,369.601,131.362,369.601z M365.705,307.411l-23.79,22.562c-6.335,6.012-17.067,5.818-23.208-0.453
	l-59.604-61.479c-2.069-2.069-4.848-3.297-7.822-3.297H131.362c-9.051,0-16.485-7.434-16.485-16.485V137.391
	c0-9.05,7.434-16.485,16.485-16.485s16.485,7.434,16.485,16.485v83.459c0,6.012,4.848,10.925,10.925,10.925h104.21
	c4.396,0,8.727,1.875,11.83,5.042l48.808,50.36c4.202,4.331,10.99,4.396,15.386,0.323l4.073-3.943
	c6.4-6.012,17.261-5.818,23.273,0.646C372.752,292.477,372.234,300.235,365.705,307.411z"/>
<path style="fill:#56ACE0;" d="M203.119,286.465c-10.925,29.996-39.24,50.23-71.887,50.23c-42.214,0-76.541-34.392-76.541-76.606
	c0-27.41,14.869-52.687,38.335-66.198v-36.267c-42.473,15.709-71.24,56.048-71.24,102.465c0,60.444,49.131,109.511,109.511,109.511
	c50.683,0,94.19-34.974,106.085-83.135H203.119L203.119,286.465z"/>
<path style="fill:#FFC10D;" d="M343.079,283.556l-4.073,3.943c-4.331,4.073-11.184,3.943-15.386-0.323l-48.808-50.36
	c-3.103-3.168-7.434-5.042-11.83-5.042H158.707c-6.012,0-10.925-4.848-10.925-10.925v-83.459c0-9.05-7.434-16.485-16.485-16.485
	s-16.485,7.434-16.485,16.485v110.804c0,9.05,7.434,16.485,16.485,16.485h119.984c2.909,0,5.818,1.228,7.822,3.297l59.604,61.479
	c6.077,6.271,16.873,6.465,23.208,0.453l23.79-22.562c6.465-7.176,6.982-14.933,0.646-23.273
	C360.339,277.803,349.479,277.479,343.079,283.556z"/>
<path style="fill:#FFFFFF;" d="M131.362,22.966c-11.572,0-21.01,9.438-21.01,21.01s9.438,21.01,21.01,21.01s21.01-9.438,21.01-21.01
	S142.933,22.966,131.362,22.966z"/>
<path style="fill:#194F82;" d="M131.362,1.116c-23.661,0-42.796,19.265-42.796,42.796c0,23.661,19.265,42.796,42.796,42.796
	c23.661,0,42.796-19.265,42.796-42.796S154.958,1.116,131.362,1.116z M131.362,64.987c-11.572,0-21.01-9.438-21.01-21.01
	s9.438-21.01,21.01-21.01s21.01,9.438,21.01,21.01S142.933,64.987,131.362,64.987z"/>
</svg>