<?xml version="1.0" standalone="no"?>
<!DOCTYPE svg PUBLIC "-//W3C//DTD SVG 20010904//EN"
 "http://www.w3.org/TR/2001/REC-SVG-20010904/DTD/svg10.dtd">
<svg version="1.0" xmlns="http://www.w3.org/2000/svg"
 width="64px" height="64px" viewBox="0 0 1024.000000 1024.000000"
 preserveAspectRatio="xMidYMid meet">

<g transform="translate(0.000000,1024.000000) scale(0.100000,-0.100000)"
fill="#008000" stroke="none">
<path d="M0 5120 l0 -5120 5120 0 5120 0 0 5120 0 5120 -5120 0 -5120 0 0
-5120z m5520 3311 c63 -6 171 -16 240 -21 405 -35 837 -104 1156 -185 269 -69
367 -98 752 -227 l302 -101 0 -1276 c0 -1628 -7 -1759 -119 -2196 -62 -241
-139 -429 -256 -630 -287 -490 -677 -914 -1210 -1315 -339 -255 -626 -433
-1007 -625 l-246 -125 -134 64 c-584 277 -1241 723 -1669 1133 -391 375 -751
902 -883 1293 -71 213 -125 464 -153 720 -14 136 -17 324 -20 1556 l-4 1402
363 120 c354 117 634 193 903 245 426 83 708 125 1055 156 124 12 245 23 270
25 77 7 539 -2 660 -13z"/>
<path d="M4965 8114 c-27 -2 -129 -8 -225 -14 -663 -40 -1314 -166 -2018 -390
l-133 -42 4 -1262 c4 -1054 7 -1281 20 -1386 64 -522 196 -909 427 -1249 302
-446 714 -838 1270 -1207 280 -187 466 -297 688 -408 l134 -67 171 89 c270
140 617 357 872 547 608 450 1092 1033 1278 1535 79 213 153 549 176 800 7 74
11 560 11 1361 l0 1247 -27 11 c-84 33 -483 151 -679 200 -538 135 -1170 220
-1749 234 -93 3 -192 3 -220 1z m2075 -1324 l0 -580 -272 0 -273 0 0 88 c0 75
-4 95 -28 144 -30 61 -74 105 -140 140 -41 22 -50 23 -402 26 l-360 3 5 -1283
5 -1283 29 -55 c73 -140 193 -231 349 -264 l27 -6 0 -220 0 -220 -860 0 -860
0 0 219 0 218 65 18 c130 35 252 132 308 245 l32 65 5 1283 5 1283 -355 -3
c-337 -3 -357 -4 -401 -24 -56 -26 -111 -80 -141 -137 -17 -32 -23 -64 -26
-139 l-4 -98 -274 0 -274 0 0 580 0 580 1920 0 1920 0 0 -580z"/>
</g>
</svg>
